<svg id="Layer_1" data-name="Layer 1" xmlns="http://www.w3.org/2000/svg" width="3840" height="2160" viewBox="0 0 3840 2160"><defs><style>.cls-1{fill:#fff;}.cls-2{fill:#d4d4d4;}.cls-3{opacity:0;}.cls-4{opacity:0.03;}.cls-5{opacity:0.05;}.cls-6{opacity:0.08;}.cls-7{opacity:0.11;}.cls-8{opacity:0.14;}.cls-9{opacity:0.16;}.cls-10{opacity:0.19;}.cls-11{opacity:0.22;}.cls-12{opacity:0.25;}.cls-13{opacity:0.27;}.cls-14{opacity:0.3;}.cls-15{fill:#b86405;}.cls-16{fill:#f28307;}.cls-17{fill:#ba4118;}.cls-18{fill:#f2541f;}.cls-19{fill:#76911f;}.cls-20{fill:#a4c92c;}.cls-21{fill:#c4a927;}.cls-22{fill:#f2d130;}.cls-23{fill:#226a94;}.cls-24{fill:#54b8f2;}</style></defs><title>Etapes gestion de projet</title><rect class="cls-1" width="3840" height="2160"/><polyline class="cls-1" points="3840 0 3840 2160 0 2160"/><path class="cls-2" d="M3596.71,266.24l-392.4,34.85a30.71,30.71,0,0,0-12.7,3.62c-10.55,6.09-9,17.74,7.45,21.6l75.62,17.78-484.45,279.7.2.11L120,2160H601.33L3513.48,484.86l28.11,40.51c6.62,9.53,26.73,10.48,37.27,4.39,3.17-1.83,5.47-4.29,6.29-7.35l61.44-227.18C3651.19,278.26,3626,263.64,3596.71,266.24Z"/><path class="cls-3" d="M3013.69,812.28c76.08,0,148.18-17.44,203-49.1,60.52-34.94,93.9-83.32,94-136.23.07-52.61-32.84-100.74-92.67-135.52-54.55-31.7-126.51-49.15-202.64-49.15s-148.17,17.43-203,49.1c-60.52,34.94-93.89,83.31-94,136.21-.07,52.62,32.85,100.76,92.7,135.54C2865.63,794.82,2937.58,812.28,3013.69,812.28Z"/><path class="cls-4" d="M2813.82,493.89c-59.73,34.49-92.43,82-92.51,133.7-.08,51.39,32.18,98.7,91.25,133,54.24,31.52,125.8,48.75,201.14,48.75s147-17.21,201.56-48.71c59.73-34.49,92.44-82,92.51-133.7.08-51.39-32.17-98.69-91.22-133-54.27-31.54-125.83-48.76-201.18-48.76S2868.37,462.4,2813.82,493.89Z"/><path class="cls-5" d="M2815.28,496.41c-59,34-91,80.76-91.06,131.17-.08,50.16,31.51,96.65,89.8,130.52,54,31.36,125.11,48.36,199.69,48.36s145.82-17,200.09-48.32c58.95-34,91-80.75,91.06-131.18.08-50.15-31.5-96.63-89.78-130.5-54-31.37-125.14-48.37-199.72-48.36S2869.55,465.08,2815.28,496.41Z"/><path class="cls-6" d="M2816.73,498.93c-58.16,33.58-89.52,79.47-89.6,128.65-.08,48.93,30.84,94.58,88.35,128,53.68,31.2,124.43,48,198.23,48s144.65-16.76,198.64-47.93C3270.51,722,3301.87,676.15,3302,627c.08-48.92-30.83-94.57-88.33-128-53.69-31.21-124.46-48-198.26-48S2870.72,467.76,2816.73,498.93Z"/><path class="cls-7" d="M2818.19,501.45c-57.38,33.13-88.07,78.19-88.15,126.13-.08,47.69,30.17,92.52,86.9,125.49,53.4,31,123.75,47.57,196.78,47.57s143.47-16.53,197.17-47.53C3268.27,720,3299,674.91,3299,627c.09-47.69-30.16-92.51-86.88-125.48-53.41-31-123.77-47.58-196.81-47.58S2871.89,470.45,2818.19,501.45Z"/><path class="cls-8" d="M2819.64,504c-56.59,32.67-86.61,76.91-86.69,123.6-.09,46.46,29.49,90.47,85.45,123,53.12,30.87,123.07,47.18,195.33,47.17s142.29-16.3,195.71-47.14c56.59-32.68,86.61-76.92,86.7-123.61.08-46.46-29.5-90.46-85.44-123-53.13-30.88-123.09-47.19-195.36-47.19S2873.06,473.13,2819.64,504Z"/><path class="cls-9" d="M2821.1,506.49c-55.8,32.22-85.16,75.62-85.24,121.08-.09,45.23,28.82,88.4,84,120.47,52.83,30.71,122.38,46.79,193.86,46.78s141.11-16.08,194.25-46.75c55.81-32.22,85.16-75.63,85.25-121.09.08-45.22-28.83-88.39-84-120.45-52.85-30.72-122.41-46.8-193.9-46.8S2874.23,475.81,2821.1,506.49Z"/><path class="cls-10" d="M2822.55,509c-55,31.76-83.7,74.34-83.78,118.55-.09,44,28.15,86.35,82.56,118,52.55,30.54,121.7,46.39,192.41,46.38s139.93-15.85,192.79-46.36c55-31.77,83.7-74.35,83.79-118.57.08-44-28.15-86.33-82.54-117.94-52.57-30.55-121.73-46.4-192.45-46.4S2875.4,478.49,2822.55,509Z"/><path class="cls-11" d="M2824,511.53c-54.22,31.31-82.24,73.06-82.33,116-.09,42.76,27.49,84.29,81.12,115.45,52.27,30.38,121,46,191,46s138.75-15.62,191.33-46c54.22-31.31,82.24-73.07,82.33-116,.09-42.76-27.48-84.28-81.1-115.43-52.28-30.39-121-46-191-46S2876.58,481.18,2824,511.53Z"/><path class="cls-12" d="M2825.46,514.05c-53.44,30.85-80.78,71.77-80.88,113.5-.09,41.54,26.82,82.23,79.67,113,52,30.21,120.33,45.6,189.5,45.59s137.58-15.39,189.87-45.58c53.44-30.86,80.79-71.79,80.88-113.52.09-41.52-26.81-82.22-79.65-112.92-52-30.22-120.36-45.62-189.53-45.61S2877.75,483.86,2825.46,514.05Z"/><path class="cls-13" d="M2826.91,516.57c-52.65,30.4-79.32,70.49-79.42,111-.09,40.3,26.15,80.17,78.22,110.43,51.71,30,119.65,45.21,188.05,45.21S3150.16,768,3202.17,738c52.65-30.4,79.33-70.5,79.42-111,.09-40.3-26.14-80.16-78.2-110.41-51.72-30.06-119.67-45.23-188.08-45.22S2878.92,486.54,2826.91,516.57Z"/><path class="cls-14" d="M2828.37,519.09c-103.5,59.75-104,156.62-1.2,216.38s270,59.75,373.54,0,104-156.63,1.22-216.37S2931.86,459.33,2828.37,519.09Z"/><path class="cls-3" d="M2456.57,1143.54c76.08,0,148.18-17.44,203-49.09,60.52-35,93.9-83.33,94-136.23.07-52.62-32.84-100.75-92.67-135.52-54.55-31.7-126.51-49.16-202.64-49.16s-148.17,17.44-203,49.1c-60.52,34.94-93.89,83.31-94,136.22-.07,52.62,32.85,100.75,92.7,135.54C2308.51,1126.09,2380.46,1143.54,2456.57,1143.54Z"/><path class="cls-4" d="M2256.7,825.16c-59.73,34.48-92.43,82-92.51,133.69-.08,51.39,32.18,98.7,91.25,133,54.24,31.53,125.8,48.75,201.14,48.75s147-17.21,201.56-48.7c59.73-34.49,92.44-82.05,92.51-133.71.08-51.38-32.17-98.69-91.22-133-54.27-31.53-125.83-48.76-201.18-48.76S2311.25,793.66,2256.7,825.16Z"/><path class="cls-5" d="M2258.16,827.68c-58.95,34-91,80.75-91.06,131.17-.08,50.15,31.51,96.64,89.8,130.52,54,31.36,125.11,48.35,199.69,48.35s145.82-17,200.09-48.31c59-34,91-80.76,91.06-131.19.08-50.15-31.5-96.62-89.78-130.49-54-31.37-125.14-48.37-199.72-48.37S2312.43,796.34,2258.16,827.68Z"/><path class="cls-6" d="M2259.61,830.2c-58.16,33.57-89.52,79.47-89.6,128.64-.08,48.93,30.84,94.59,88.35,128,53.68,31.2,124.43,48,198.23,48s144.65-16.76,198.64-47.92c58.16-33.58,89.52-79.48,89.6-128.66.08-48.92-30.83-94.57-88.33-128-53.69-31.2-124.46-48-198.26-48S2313.6,799,2259.61,830.2Z"/><path class="cls-7" d="M2261.07,832.71c-57.38,33.13-88.07,78.19-88.15,126.13-.08,47.69,30.17,92.52,86.9,125.49,53.4,31,123.75,47.58,196.78,47.57s143.47-16.53,197.17-47.53c57.38-33.13,88.07-78.2,88.15-126.14.08-47.68-30.16-92.51-86.88-125.47-53.41-31-123.77-47.59-196.81-47.58S2314.77,801.71,2261.07,832.71Z"/><path class="cls-8" d="M2262.52,835.23c-56.59,32.67-86.61,76.91-86.69,123.6-.09,46.46,29.49,90.47,85.45,123,53.12,30.87,123.07,47.18,195.33,47.17s142.29-16.3,195.71-47.14c56.59-32.67,86.61-76.91,86.69-123.61.09-46.46-29.49-90.46-85.43-123-53.13-30.87-123.09-47.19-195.36-47.18S2315.94,804.39,2262.52,835.23Z"/><path class="cls-9" d="M2264,837.75c-55.8,32.22-85.16,75.63-85.24,121.08-.09,45.23,28.82,88.41,84,120.47,52.83,30.71,122.38,46.79,193.86,46.78s141.11-16.07,194.25-46.75c55.81-32.22,85.16-75.63,85.25-121.09.08-45.22-28.83-88.39-84-120.45-52.85-30.71-122.41-46.8-193.9-46.79S2317.11,807.07,2264,837.75Z"/><path class="cls-10" d="M2265.43,840.27c-55,31.76-83.7,74.34-83.78,118.56-.09,44,28.15,86.34,82.56,118,52.55,30.54,121.7,46.39,192.41,46.39s139.93-15.86,192.79-46.37c55-31.77,83.7-74.35,83.79-118.56.08-44-28.15-86.34-82.54-118-52.57-30.55-121.73-46.4-192.45-46.4S2318.28,809.76,2265.43,840.27Z"/><path class="cls-11" d="M2266.88,842.79c-54.22,31.31-82.24,73.06-82.33,116-.09,42.76,27.49,84.29,81.12,115.45,52.27,30.38,121,46,191,46s138.75-15.63,191.32-46c54.23-31.31,82.25-73.07,82.34-116,.09-42.76-27.48-84.28-81.1-115.43-52.28-30.39-121-46-191-46S2319.46,812.44,2266.88,842.79Z"/><path class="cls-12" d="M2268.34,845.31c-53.44,30.85-80.78,71.78-80.88,113.51-.09,41.53,26.82,82.23,79.67,112.94,52,30.21,120.33,45.61,189.5,45.6s137.58-15.4,189.87-45.59c53.44-30.86,80.79-71.78,80.88-113.51.09-41.53-26.81-82.22-79.65-112.93-52-30.22-120.36-45.62-189.53-45.61S2320.63,815.12,2268.34,845.31Z"/><path class="cls-13" d="M2269.79,847.83c-52.65,30.4-79.32,70.49-79.42,111-.09,40.3,26.15,80.17,78.22,110.43,51.71,30,119.65,45.22,188,45.21s136.4-15.17,188.41-45.2c52.65-30.4,79.33-70.5,79.42-111,.09-40.29-26.14-80.16-78.2-110.41-51.72-30.06-119.67-45.23-188.08-45.22S2321.8,817.8,2269.79,847.83Z"/><path class="cls-14" d="M2271.25,850.35c-103.5,59.75-104,156.63-1.2,216.38s270,59.75,373.54,0,104-156.63,1.22-216.37S2374.74,790.6,2271.25,850.35Z"/><path class="cls-3" d="M1894.31,1450c76.08,0,148.18-17.44,203-49.09,60.53-35,93.9-83.33,94-136.23.08-52.62-32.83-100.75-92.67-135.52-54.55-31.7-126.51-49.16-202.63-49.16s-148.18,17.44-203,49.1c-60.52,34.94-93.89,83.31-94,136.22-.07,52.62,32.85,100.75,92.7,135.54C1746.24,1432.55,1818.19,1450,1894.31,1450Z"/><path class="cls-4" d="M1694.44,1131.62c-59.74,34.48-92.44,82-92.52,133.69-.07,51.39,32.18,98.7,91.25,133,54.25,31.53,125.8,48.75,201.14,48.75s147-17.21,201.56-48.7c59.73-34.49,92.44-82.05,92.51-133.71.08-51.38-32.16-98.69-91.22-133-54.26-31.53-125.83-48.76-201.18-48.76S1749,1100.12,1694.44,1131.62Z"/><path class="cls-5" d="M1695.89,1134.14c-59,34-91,80.75-91.06,131.17-.08,50.15,31.51,96.64,89.8,130.52,54,31.36,125.12,48.35,199.69,48.35s145.82-17,200.1-48.31c58.94-34,91-80.76,91.06-131.19.07-50.15-31.5-96.62-89.78-130.49-54-31.37-125.14-48.37-199.73-48.37S1750.16,1102.8,1695.89,1134.14Z"/><path class="cls-6" d="M1697.34,1136.66c-58.16,33.57-89.52,79.47-89.6,128.64-.08,48.93,30.84,94.59,88.35,128,53.69,31.2,124.44,48,198.24,48S2039,1424.51,2093,1393.35c58.16-33.58,89.53-79.48,89.61-128.66.07-48.92-30.83-94.57-88.34-128-53.69-31.2-124.45-48-198.26-48S1751.33,1105.49,1697.34,1136.66Z"/><path class="cls-7" d="M1698.8,1139.17c-57.37,33.13-88.07,78.19-88.15,126.13-.08,47.69,30.17,92.52,86.91,125.49,53.39,31,123.74,47.58,196.77,47.57s143.47-16.53,197.18-47.53c57.37-33.13,88.06-78.2,88.15-126.14.08-47.68-30.16-92.51-86.89-125.47-53.41-31-123.77-47.59-196.81-47.58S1752.5,1108.17,1698.8,1139.17Z"/><path class="cls-8" d="M1700.25,1141.69c-56.58,32.67-86.61,76.91-86.69,123.6-.08,46.46,29.5,90.47,85.46,123,53.11,30.87,123.06,47.18,195.32,47.17s142.29-16.3,195.71-47.14c56.59-32.67,86.61-76.91,86.7-123.61.08-46.46-29.49-90.45-85.44-123-53.13-30.87-123.09-47.19-195.35-47.18S1753.67,1110.85,1700.25,1141.69Z"/><path class="cls-9" d="M1701.71,1144.21c-55.8,32.22-85.15,75.63-85.24,121.08-.09,45.23,28.83,88.41,84,120.47,52.83,30.71,122.38,46.79,193.87,46.78s141.11-16.07,194.25-46.75c55.8-32.22,85.15-75.63,85.24-121.09.08-45.22-28.82-88.39-84-120.45-52.85-30.71-122.41-46.8-193.9-46.79S1754.85,1113.53,1701.71,1144.21Z"/><path class="cls-10" d="M1703.16,1146.73c-55,31.76-83.69,74.34-83.78,118.56-.09,44,28.16,86.34,82.56,118,52.55,30.54,121.7,46.39,192.41,46.39s139.93-15.86,192.79-46.37c55-31.77,83.7-74.35,83.79-118.56.09-44-28.15-86.34-82.54-118-52.57-30.55-121.73-46.4-192.45-46.4S1756,1116.22,1703.16,1146.73Z"/><path class="cls-11" d="M1704.62,1149.25c-54.23,31.31-82.24,73.06-82.33,116-.09,42.76,27.49,84.29,81.11,115.45,52.27,30.38,121,46,191,46s138.75-15.63,191.33-46c54.23-31.31,82.24-73.07,82.33-116,.09-42.76-27.48-84.28-81.09-115.43-52.29-30.39-121-46-191-46S1757.19,1118.9,1704.62,1149.25Z"/><path class="cls-12" d="M1706.07,1151.77c-53.44,30.85-80.78,71.78-80.87,113.51-.1,41.53,26.82,82.23,79.66,112.94,52,30.21,120.34,45.61,189.51,45.6s137.57-15.4,189.86-45.59c53.45-30.86,80.79-71.78,80.88-113.51.09-41.53-26.81-82.22-79.65-112.93-52-30.22-120.35-45.62-189.53-45.61S1758.36,1121.58,1706.07,1151.77Z"/><path class="cls-13" d="M1707.53,1154.29c-52.66,30.4-79.33,70.49-79.42,111-.1,40.3,26.15,80.17,78.22,110.43,51.7,30,119.64,45.22,188,45.21s136.4-15.17,188.41-45.2c52.65-30.4,79.33-70.5,79.42-111,.1-40.29-26.14-80.16-78.2-110.41-51.71-30.06-119.67-45.23-188.08-45.22S1759.53,1124.26,1707.53,1154.29Z"/><path class="cls-14" d="M1709,1156.81c-103.49,59.75-104,156.63-1.19,216.38s270,59.75,373.53,0,104-156.63,1.22-216.37S1812.48,1097.06,1709,1156.81Z"/><path class="cls-3" d="M1337.19,1781.26c76.08,0,148.18-17.43,203-49.09,60.53-35,93.9-83.33,94-136.23.08-52.62-32.83-100.75-92.67-135.52-54.55-31.7-126.51-49.16-202.63-49.16s-148.18,17.44-203,49.1c-60.52,34.94-93.89,83.32-94,136.22-.07,52.62,32.85,100.76,92.7,135.54C1189.12,1763.81,1261.07,1781.26,1337.19,1781.26Z"/><path class="cls-4" d="M1137.32,1462.88c-59.74,34.49-92.44,82-92.52,133.69-.07,51.39,32.18,98.7,91.25,133,54.25,31.53,125.8,48.75,201.14,48.75s147-17.21,201.56-48.7c59.73-34.49,92.44-82,92.51-133.71.08-51.38-32.16-98.68-91.22-133-54.26-31.53-125.83-48.76-201.18-48.76S1191.87,1431.38,1137.32,1462.88Z"/><path class="cls-5" d="M1138.77,1465.4c-59,34-91,80.75-91.06,131.17-.08,50.16,31.51,96.64,89.8,130.52,54,31.36,125.12,48.36,199.69,48.35s145.82-17,200.1-48.31c58.94-34,91-80.76,91-131.18.08-50.16-31.49-96.63-89.77-130.5-54-31.37-125.14-48.37-199.73-48.37S1193,1434.07,1138.77,1465.4Z"/><path class="cls-6" d="M1140.22,1467.92c-58.16,33.58-89.52,79.47-89.6,128.65-.08,48.92,30.84,94.58,88.35,128,53.69,31.2,124.43,48,198.24,48s144.64-16.76,198.63-47.93c58.16-33.58,89.53-79.48,89.61-128.66.07-48.92-30.83-94.57-88.34-128-53.69-31.2-124.45-48-198.26-48S1194.21,1436.75,1140.22,1467.92Z"/><path class="cls-7" d="M1141.68,1470.44c-57.37,33.12-88.07,78.18-88.15,126.12-.08,47.69,30.17,92.52,86.91,125.5,53.39,31,123.74,47.57,196.77,47.57s143.47-16.54,197.18-47.54c57.37-33.13,88.06-78.19,88.15-126.13.08-47.69-30.16-92.52-86.89-125.48-53.41-31-123.77-47.58-196.81-47.58S1195.38,1439.43,1141.68,1470.44Z"/><path class="cls-8" d="M1143.13,1473c-56.58,32.67-86.61,76.9-86.69,123.6-.08,46.46,29.5,90.46,85.46,123,53.11,30.87,123.06,47.18,195.32,47.18s142.29-16.31,195.71-47.15c56.59-32.67,86.61-76.91,86.7-123.61.08-46.45-29.49-90.45-85.44-123-53.13-30.88-123.09-47.2-195.35-47.19S1196.55,1442.11,1143.13,1473Z"/><path class="cls-9" d="M1144.59,1475.48c-55.8,32.21-85.15,75.62-85.24,121.07-.09,45.23,28.83,88.41,84,120.48,52.83,30.7,122.38,46.78,193.87,46.78s141.11-16.08,194.25-46.76c55.8-32.22,85.15-75.63,85.24-121.08.08-45.23-28.82-88.4-84-120.46-52.85-30.71-122.41-46.8-193.9-46.79S1197.73,1444.8,1144.59,1475.48Z"/><path class="cls-10" d="M1146,1478c-55,31.77-83.69,74.35-83.78,118.56-.09,44,28.16,86.35,82.56,118,52.55,30.54,121.7,46.39,192.41,46.39s139.93-15.85,192.79-46.37c55-31.76,83.7-74.35,83.79-118.56.09-44-28.15-86.34-82.54-117.94-52.57-30.55-121.73-46.41-192.45-46.4S1198.9,1447.48,1146,1478Z"/><path class="cls-11" d="M1147.5,1480.51c-54.23,31.31-82.24,73.06-82.33,116-.09,42.77,27.49,84.29,81.11,115.46,52.27,30.37,121,46,191,46s138.75-15.63,191.33-46c54.23-31.31,82.24-73.06,82.33-116,.09-42.75-27.48-84.27-81.09-115.43-52.29-30.38-121-46-191-46S1200.07,1450.16,1147.5,1480.51Z"/><path class="cls-12" d="M1149,1483c-53.44,30.86-80.78,71.78-80.87,113.51-.1,41.53,26.82,82.23,79.66,112.94,52,30.21,120.34,45.61,189.51,45.6s137.57-15.4,189.86-45.59c53.45-30.85,80.79-71.78,80.88-113.51.09-41.53-26.81-82.22-79.65-112.92-52-30.22-120.35-45.62-189.53-45.61S1201.24,1452.84,1149,1483Z"/><path class="cls-13" d="M1150.41,1485.55c-52.66,30.4-79.33,70.5-79.42,111-.1,40.3,26.15,80.18,78.22,110.44,51.7,30,119.64,45.21,188,45.2s136.4-15.17,188.41-45.2c52.65-30.4,79.33-70.5,79.42-111,.1-40.29-26.14-80.16-78.2-110.41-51.71-30-119.67-45.22-188.08-45.21S1202.41,1455.53,1150.41,1485.55Z"/><path class="cls-14" d="M1151.86,1488.07c-103.49,59.75-104,156.63-1.19,216.38s270,59.76,373.53,0,104-156.62,1.22-216.36S1255.35,1428.32,1151.86,1488.07Z"/><path class="cls-3" d="M776.05,2119.26c76.08,0,148.18-17.44,203-49.09,60.52-35,93.9-83.33,94-136.23.07-52.62-32.84-100.75-92.67-135.52-54.55-31.7-126.51-49.16-202.64-49.16s-148.17,17.44-203,49.1c-60.52,34.94-93.9,83.32-94,136.22-.07,52.62,32.85,100.76,92.7,135.54C628,2101.81,699.94,2119.26,776.05,2119.26Z"/><path class="cls-4" d="M576.18,1800.88c-59.73,34.49-92.43,82-92.51,133.69-.08,51.39,32.18,98.7,91.25,133,54.24,31.53,125.79,48.75,201.14,48.75s147-17.21,201.56-48.7c59.73-34.49,92.43-82,92.51-133.71.07-51.38-32.17-98.69-91.23-133-54.26-31.53-125.82-48.76-201.17-48.76S630.73,1769.38,576.18,1800.88Z"/><path class="cls-5" d="M577.64,1803.4c-58.95,34-91,80.75-91.06,131.17-.08,50.16,31.5,96.64,89.8,130.52,54,31.36,125.11,48.35,199.69,48.35s145.82-17,200.09-48.31c58.95-34,91-80.76,91.06-131.18.08-50.16-31.5-96.63-89.78-130.5-54-31.37-125.14-48.37-199.72-48.37S631.9,1772.06,577.64,1803.4Z"/><path class="cls-6" d="M579.09,1805.92c-58.16,33.58-89.52,79.47-89.6,128.64-.08,48.93,30.83,94.59,88.35,128,53.68,31.2,124.43,48,198.23,48s144.65-16.75,198.64-47.92c58.16-33.58,89.52-79.48,89.6-128.66.08-48.92-30.83-94.57-88.33-128-53.7-31.2-124.46-48-198.27-48S633.08,1774.75,579.09,1805.92Z"/><path class="cls-7" d="M580.55,1808.44c-57.38,33.12-88.07,78.18-88.15,126.12-.09,47.69,30.16,92.52,86.9,125.5,53.4,31,123.75,47.57,196.78,47.56s143.47-16.53,197.17-47.53c57.38-33.13,88.07-78.2,88.15-126.13.08-47.69-30.16-92.52-86.88-125.48-53.42-31-123.78-47.59-196.81-47.58S634.25,1777.43,580.55,1808.44Z"/><path class="cls-8" d="M582,1811c-56.59,32.68-86.61,76.91-86.69,123.61-.09,46.46,29.49,90.46,85.45,123,53.12,30.87,123.07,47.18,195.33,47.18s142.28-16.31,195.71-47.15c56.59-32.67,86.61-76.91,86.69-123.61.09-46.46-29.49-90.45-85.43-123-53.13-30.87-123.09-47.19-195.36-47.18S635.42,1780.11,582,1811Z"/><path class="cls-9" d="M583.45,1813.47c-55.8,32.22-85.15,75.63-85.23,121.08-.09,45.23,28.82,88.41,84,120.48,52.83,30.7,122.38,46.78,193.86,46.78s141.11-16.08,194.25-46.76c55.8-32.22,85.16-75.63,85.24-121.09.09-45.22-28.82-88.39-84-120.45-52.85-30.71-122.41-46.8-193.9-46.79S636.59,1782.79,583.45,1813.47Z"/><path class="cls-10" d="M584.91,1816c-55,31.76-83.7,74.34-83.79,118.56-.08,44,28.16,86.34,82.57,118,52.55,30.54,121.69,46.39,192.41,46.39s139.93-15.85,192.79-46.37c55-31.76,83.7-74.35,83.79-118.56.08-44-28.16-86.34-82.55-118-52.56-30.54-121.72-46.4-192.44-46.39S637.76,1785.48,584.91,1816Z"/><path class="cls-11" d="M586.36,1818.51c-54.22,31.31-82.24,73.06-82.33,116-.09,42.77,27.49,84.29,81.12,115.46,52.27,30.37,121,46,191,46s138.76-15.63,191.33-46c54.23-31.31,82.25-73.06,82.34-116,.09-42.76-27.49-84.27-81.1-115.43-52.28-30.38-121-46-191-46S638.93,1788.16,586.36,1818.51Z"/><path class="cls-12" d="M587.82,1821c-53.44,30.85-80.79,71.78-80.88,113.51-.09,41.53,26.82,82.23,79.67,112.94,52,30.21,120.33,45.61,189.5,45.6s137.58-15.4,189.87-45.59c53.44-30.85,80.79-71.78,80.88-113.51.09-41.53-26.82-82.22-79.65-112.92-52-30.22-120.36-45.62-189.53-45.62S640.11,1790.84,587.82,1821Z"/><path class="cls-13" d="M589.27,1823.55c-52.65,30.4-79.32,70.5-79.42,111-.09,40.3,26.15,80.18,78.22,110.44,51.7,30,119.65,45.21,188,45.2s136.4-15.17,188.4-45.2c52.66-30.4,79.33-70.5,79.43-111,.09-40.29-26.15-80.16-78.2-110.41-51.72-30-119.67-45.23-188.08-45.22S641.28,1793.53,589.27,1823.55Z"/><path class="cls-14" d="M590.73,1826.07c-103.5,59.75-104,156.63-1.2,216.38s270.05,59.75,373.54,0,104-156.63,1.22-216.36S694.22,1766.32,590.73,1826.07Z"/><path class="cls-15" d="M2750.61,552.67c2.48,45.05,37.28,78.69,73.47,100.93,39.41,24.23,86.09,37,131.64,42.93,44.91,5.82,91.41,5.25,136-3.07s89.06-22.84,126.53-49.13c29.11-20.43,55.19-49.9,59.76-86.44a89.86,89.86,0,0,0,.69-11.36l.12,42.75c0,14.51,1.12,29.51-.39,44-2.89,27.7-18.6,52.07-38.5,70.85-25.71,24.26-58.47,40.95-91.75,52.18-68.3,23.05-144.79,27.55-215.5,13.74-36.27-7.08-71.86-18.28-104.08-36.7-29.5-16.87-57.25-40.69-70.63-72.65-7.55-18.07-7.33-36.42-7.39-55.49l-.15-53.56V548C2750.41,549.57,2750.52,551.12,2750.61,552.67Z"/><path class="cls-16" d="M2828.37,439.09c-103.5,59.75-104,156.62-1.2,216.38s270,59.75,373.54,0,104-156.63,1.22-216.37S2931.86,379.33,2828.37,439.09Z"/><path class="cls-1" d="M2870.66,463.66c-80,46.18-80.39,121.05-.93,167.23s208.71,46.18,288.69,0,80.39-121,.95-167.22S2950.64,417.48,2870.66,463.66Z"/><path class="cls-17" d="M2191.13,887.13c2.48,45,37.28,78.69,73.47,100.94,39.41,24.22,86.1,37,131.64,42.92,44.91,5.82,91.41,5.25,136-3.06s89.06-22.85,126.53-49.14c29.12-20.43,55.2-49.89,59.76-86.44a89.75,89.75,0,0,0,.69-11.36l.12,42.75c0,14.51,1.13,29.51-.38,44-2.89,27.7-18.61,52.08-38.5,70.85-25.71,24.26-58.47,41-91.76,52.19-68.3,23-144.78,27.55-215.49,13.73-36.28-7.08-71.87-18.27-104.09-36.7-29.5-16.86-57.25-40.69-70.62-72.65-7.56-18.07-7.34-36.42-7.39-55.49l-.15-53.56v-3.61C2190.93,884,2191,885.58,2191.13,887.13Z"/><path class="cls-18" d="M2268.89,773.55c-103.49,59.75-104,156.62-1.19,216.38s270,59.75,373.53,0,104-156.63,1.22-216.37S2372.39,713.8,2268.89,773.55Z"/><path class="cls-1" d="M2311.18,798.12c-80,46.18-80.39,121-.92,167.23s208.7,46.19,288.69,0,80.39-121.06.94-167.23S2391.16,751.94,2311.18,798.12Z"/><path class="cls-19" d="M1631.65,1193.13c2.49,45,37.28,78.69,73.48,100.93,39.4,24.22,86.09,37,131.64,42.93,44.9,5.82,91.41,5.25,136-3.07s89.06-22.85,126.53-49.13c29.12-20.43,55.2-49.9,59.76-86.44a89.87,89.87,0,0,0,.7-11.36l.12,42.75c0,14.51,1.12,29.51-.39,44-2.89,27.7-18.6,52.07-38.5,70.85-25.71,24.26-58.47,41-91.75,52.18-68.3,23-144.79,27.55-215.5,13.74-36.28-7.08-71.87-18.28-104.08-36.7-29.5-16.87-57.26-40.69-70.63-72.66-7.56-18.07-7.34-36.41-7.39-55.48l-.15-53.56c0-1.21,0-2.41,0-3.61C1631.45,1190,1631.57,1191.58,1631.65,1193.13Z"/><path class="cls-20" d="M1709.41,1079.54c-103.49,59.76-104,156.63-1.19,216.38s270,59.76,373.54,0,104-156.63,1.21-216.37S1812.91,1019.79,1709.41,1079.54Z"/><path class="cls-1" d="M1751.7,1104.12c-80,46.18-80.39,121.05-.92,167.23s208.7,46.18,288.69,0,80.39-121,.94-167.22S1831.69,1057.94,1751.7,1104.12Z"/><path class="cls-21" d="M1072.17,1527.59c2.49,45.05,37.28,78.69,73.48,100.94,39.4,24.22,86.09,37,131.64,42.92,44.91,5.82,91.41,5.25,136-3.06s89.06-22.85,126.52-49.14c29.12-20.43,55.2-49.89,59.77-86.44a89.75,89.75,0,0,0,.69-11.36l.12,42.75c0,14.51,1.12,29.51-.39,44-2.89,27.7-18.6,52.08-38.5,70.85-25.71,24.26-58.47,41-91.75,52.18-68.3,23-144.79,27.55-215.5,13.74-36.28-7.08-71.86-18.28-104.08-36.7-29.5-16.86-57.26-40.69-70.63-72.65-7.55-18.07-7.33-36.42-7.39-55.49l-.15-53.56c0-1.2,0-2.41,0-3.61C1072,1524.49,1072.09,1526,1072.17,1527.59Z"/><path class="cls-22" d="M1149.94,1414c-103.5,59.75-104,156.62-1.2,216.38s270,59.75,373.54,0,104-156.63,1.22-216.37S1253.43,1354.25,1149.94,1414Z"/><path class="cls-1" d="M1192.22,1438.58c-80,46.18-80.38,121.05-.92,167.23s208.71,46.18,288.69,0,80.39-121,.94-167.22S1272.21,1392.4,1192.22,1438.58Z"/><path class="cls-23" d="M512.7,1861.58c2.48,45,37.28,78.69,73.47,100.93,39.41,24.22,86.1,37,131.64,42.93,44.91,5.82,91.41,5.25,136-3.07s89.06-22.85,126.53-49.13c29.12-20.43,55.2-49.9,59.76-86.44a89.86,89.86,0,0,0,.69-11.36l.12,42.74c0,14.51,1.12,29.52-.38,44-2.9,27.7-18.61,52.07-38.51,70.85-25.7,24.26-58.46,40.95-91.75,52.18-68.3,23.05-144.78,27.55-215.5,13.74-36.27-7.08-71.86-18.28-104.08-36.7-29.5-16.87-57.25-40.69-70.62-72.66-7.56-18.07-7.34-36.42-7.39-55.48q-.07-26.79-.16-53.56c0-1.21,0-2.41,0-3.62C512.5,1858.48,512.61,1860,512.7,1861.58Z"/><path class="cls-24" d="M590.46,1748c-103.49,59.76-104,156.63-1.19,216.38s270,59.76,373.53,0,104-156.63,1.22-216.37S694,1688.24,590.46,1748Z"/><path class="cls-1" d="M632.75,1772.57c-80,46.18-80.39,121-.93,167.23s208.71,46.18,288.7,0,80.38-121,.94-167.22S712.73,1726.39,632.75,1772.57Z"/><path class="cls-24" d="M776.63,1859.44a4,4,0,0,0,4-4V1462.82a4,4,0,0,0-8,0v392.62A4,4,0,0,0,776.63,1859.44Z"/><circle class="cls-24" cx="776.9" cy="1462.82" r="25.2"/><path class="cls-22" d="M1330.12,1531.31a4,4,0,0,0,4-4V1134.69a4,4,0,0,0-8,0v392.62A4,4,0,0,0,1330.12,1531.31Z"/><circle class="cls-22" cx="1330.39" cy="1134.69" r="25.2" transform="translate(-412.68 1273.07) rotate(-45)"/><path class="cls-20" d="M1894.41,1190.56a4,4,0,0,0,4-4V793.94a4,4,0,0,0-8,0v392.62A4,4,0,0,0,1894.41,1190.56Z"/><circle class="cls-20" cx="1894.68" cy="793.94" r="25.2" transform="translate(-102.71 313.75) rotate(-9.22)"/><path class="cls-18" d="M2453.42,885a4,4,0,0,0,4-4V488.38a4,4,0,0,0-8,0V881A4,4,0,0,0,2453.42,885Z"/><circle class="cls-18" cx="2453.69" cy="488.37" r="25.2" transform="translate(-46.57 576.81) rotate(-13.28)"/><path class="cls-16" d="M3020.54,550.53a4,4,0,0,0,4-4V153.91a4,4,0,1,0-8,0V546.53A4,4,0,0,0,3020.54,550.53Z"/><circle class="cls-16" cx="3020.8" cy="153.91" r="25.2" transform="translate(775.94 2181.11) rotate(-45)"/></svg>